<svg id="chart" aria-hidden="true" fill="none" stroke="#303326" width="634" height="634" viewBox="0 0 634 634" xmlns="http://www.w3.org/2000/svg"><g id="ticks" fill="none" stroke="#303326"><polygon fill="none" stroke="#303326" points="317 268.2307692307692 351.4850537901747 282.51494620982527 365.7692307692308 317 351.48505379017473 351.4850537901747 317 365.7692307692308 282.5149462098253 351.48505379017473 268.2307692307692 317 282.51494620982527 282.5149462098253"></polygon><polygon fill="none" stroke="#303326" points="317 219.46153846153845 385.9701075803494 248.0298924196506 414.53846153846155 317 385.9701075803494 385.9701075803494 317 414.53846153846155 248.0298924196506 385.9701075803494 219.46153846153845 317 248.0298924196506 248.0298924196506"></polygon><polygon fill="none" stroke="#303326" points="317 170.69230769230768 420.45516137052414 213.54483862947586 463.3076923076923 317 420.45516137052414 420.45516137052414 317 463.3076923076923 213.54483862947592 420.45516137052414 170.69230769230768 317.00000000000006 213.54483862947586 213.54483862947592"></polygon><polygon fill="none" stroke="#303326" points="317 121.9230769230769 454.9402151606988 179.05978483930116 512.0769230769231 317 454.9402151606988 454.9402151606988 317.00000000000006 512.0769230769231 179.05978483930122 454.9402151606988 121.9230769230769 317.00000000000006 179.05978483930116 179.05978483930122"></polygon><polygon fill="none" stroke="#303326" points="317 73.15384615384613 489.4252689508735 144.57473104912646 560.8461538461538 316.99999999999994 489.4252689508736 489.4252689508735 317.00000000000006 560.8461538461538 144.5747310491265 489.4252689508736 73.15384615384613 317.00000000000006 144.57473104912643 144.5747310491265"></polygon><!----><line fill="none" stroke="#303326" x1="317" y1="317" x2="317" y2="73.15384615384613"></line><line class="dash s-nLIk1N1-vPdS" x1="317" y1="73.15384615384613" x2="317" y2="24.38461538461536"></line><g class="label s-nLIk1N1-vPdS" aria-hidden="true"><circle fill="none" stroke="#303326" cx="317" cy="24.38461538461536" r="14"></circle><text fill="none" stroke="#303326" x="317" y="24.38461538461536"></text></g><line fill="none" stroke="#303326" x1="317" y1="317" x2="489.4252689508735" y2="144.57473104912646"></line><line class="dash s-nLIk1N1-vPdS" x1="489.4252689508735" y1="144.57473104912646" x2="523.9103227410483" y2="110.08967725895175"></line><g class="label s-nLIk1N1-vPdS" aria-hidden="true"><circle fill="none" stroke="#303326" cx="523.9103227410483" cy="110.08967725895175" r="14"></circle><text fill="none" stroke="#303326" x="523.9103227410483" y="110.08967725895175"></text></g><line fill="none" stroke="#303326" x1="317" y1="317" x2="560.8461538461538" y2="316.99999999999994"></line><line class="dash s-nLIk1N1-vPdS" x1="560.8461538461538" y1="316.99999999999994" x2="609.6153846153846" y2="316.99999999999994"></line><g class="label s-nLIk1N1-vPdS" aria-hidden="true"><circle fill="none" stroke="#303326" cx="609.6153846153846" cy="316.99999999999994" r="14"></circle><text fill="none" stroke="#303326" x="609.6153846153846" y="316.99999999999994"></text></g><line fill="none" stroke="#303326" x1="317" y1="317" x2="489.4252689508736" y2="489.4252689508735"></line><line class="dash s-nLIk1N1-vPdS" x1="489.4252689508736" y1="489.4252689508735" x2="523.9103227410483" y2="523.9103227410483"></line><g class="label s-nLIk1N1-vPdS" aria-hidden="true"><circle fill="none" stroke="#303326" cx="523.9103227410483" cy="523.9103227410483" r="14"></circle><text fill="none" stroke="#303326" x="523.9103227410483" y="523.9103227410483"></text></g><line fill="none" stroke="#303326" x1="317" y1="317" x2="317.00000000000006" y2="560.8461538461538"></line><line class="dash s-nLIk1N1-vPdS" x1="317.00000000000006" y1="560.8461538461538" x2="317.00000000000006" y2="609.6153846153846"></line><g class="label s-nLIk1N1-vPdS" aria-hidden="true"><circle fill="none" stroke="#303326" cx="317.00000000000006" cy="609.6153846153846" r="14"></circle><text fill="none" stroke="#303326" x="317.00000000000006" y="609.6153846153846"></text></g><line fill="none" stroke="#303326" x1="317" y1="317" x2="144.5747310491265" y2="489.4252689508736"></line><line class="dash s-nLIk1N1-vPdS" x1="144.5747310491265" y1="489.4252689508736" x2="110.08967725895181" y2="523.9103227410483"></line><g class="label s-nLIk1N1-vPdS" aria-hidden="true"><circle fill="none" stroke="#303326" cx="110.08967725895181" cy="523.9103227410483" r="14"></circle><text fill="none" stroke="#303326" x="110.08967725895181" y="523.9103227410483"></text></g><line fill="none" stroke="#303326" x1="317" y1="317" x2="73.15384615384613" y2="317.00000000000006"></line><line class="dash s-nLIk1N1-vPdS" x1="73.15384615384613" y1="317.00000000000006" x2="24.38461538461536" y2="317.00000000000006"></line><g class="label s-nLIk1N1-vPdS" aria-hidden="true"><circle fill="none" stroke="#303326" cx="24.38461538461536" cy="317.00000000000006" r="14"></circle><text fill="none" stroke="#303326" x="24.38461538461536" y="317.00000000000006"></text></g><line fill="none" stroke="#303326" x1="317" y1="317" x2="144.57473104912643" y2="144.5747310491265"></line><line class="dash s-nLIk1N1-vPdS" x1="144.57473104912643" y1="144.5747310491265" x2="110.08967725895172" y2="110.08967725895181"></line><g class="label s-nLIk1N1-vPdS" aria-hidden="true"><circle fill="none" stroke="#303326" cx="110.08967725895172" cy="110.08967725895181" r="14"></circle><text fill="none" stroke="#303326" x="110.08967725895172" y="110.08967725895181"></text></g><!----></g></svg>