
<svg width="94" height="92" viewBox="0 0 94 92" fill="none" xmlns="http://www.w3.org/2000/svg">
<path d="M52.4921 61.7248V62.4092H73.8769V61.7248C69.8516 61.7248 67.5251 59.2421 66.3298 56.3242L51.234 20.0576H50.9202C50.5481 24.121 48.5967 27.0908 45.1406 29.7622V30.072C45.5478 30.7579 45.8587 31.5778 46.5125 32.8314L43.9949 39.0058C42.9542 38.6369 41.8786 38.428 40.7839 38.3847V25.9395H39.9214V38.3847C38.7946 38.4294 37.7117 38.647 36.7002 39.013L31.9057 27.5014L31.1074 27.8242L35.9033 39.3415C34.8934 39.804 33.968 40.4164 33.158 41.1542L24.2316 32.3415L23.6216 32.9438L32.5479 41.755C31.8065 42.549 31.1877 43.4553 30.7206 44.4438L19.0723 39.6599L18.7424 40.4452L30.3879 45.2291C30.0113 46.2334 29.788 47.3098 29.7427 48.4308H17.1384V49.2824H29.7471C29.7909 50.3876 30.0055 51.4539 30.3718 52.4553L18.7176 57.196L19.0475 57.9827L30.6958 53.2435C31.1585 54.2435 31.7758 55.1657 32.5304 55.9726L23.6201 64.7695L24.2302 65.3718L33.1419 56.5749C33.9593 57.3156 34.9065 57.9366 35.9559 58.4063C31.6036 67.1844 25.7422 70.8646 17.5602 70.2032C12.9774 69.8329 12.3279 66.1052 12.9204 63.2061C13.2809 61.4409 13.6735 60.7219 13.6735 58.9208C13.6735 56.2522 11.4098 54.5749 8.70537 54.5749C6.00089 54.5749 4.11229 56.6859 4.11229 59.2334C4.11229 63.8905 7.51878 70.134 16.1416 71.085C27.3623 72.3228 33.6776 66.8199 38.1451 56.0144L40.7241 49.7435H53.4291L56.4503 57.2579C56.7014 57.7536 57.0414 58.8112 57.0779 59.183C57.2808 61.2493 55.0025 61.7277 52.4878 61.7277L52.4921 61.7248ZM37.2315 55.5922C36.9381 56.3012 36.6375 56.9827 36.3295 57.6369C32.8282 56.0764 30.5951 52.6888 30.5951 48.8573C30.5951 43.5461 34.9722 39.2248 40.3519 39.2248C41.4845 39.2248 42.5981 39.4179 43.6709 39.7954L37.2315 55.5922ZM41.0963 48.7406L47.0817 34.1513L53.057 48.7161L41.0963 48.7406Z" fill="#303326"/>
<path d="M10.6378 42.2882L1.74934 41.5029L2.01497 38.5778L1.12029 38.4986L0.5 45.3415L1.39468 45.4207L1.66177 42.4827L10.5487 43.268L10.6378 42.2882Z" fill="#303326"/>
<path d="M11.4595 37.2277L6.97001 35.8026L8.43828 31.2925L12.9277 32.7176L13.2328 31.781L3.88023 28.8127L3.57519 29.7493L7.583 31.0216L6.11474 35.5317L2.10692 34.2608L1.80188 35.196L11.1544 38.1643L11.4595 37.2277Z" fill="#303326"/>
<path d="M17.3413 24.6455L16.5823 24.1988L13.9406 28.5764L10.4699 26.5346L12.322 23.4654L11.5762 23.0259L9.72265 26.0951L7.02401 24.5072L9.59567 20.2478L8.83526 19.8012L5.7557 24.9049L14.1887 29.8674L17.3413 24.6455Z" fill="#303326"/>
<path d="M20.7536 20.7277L19.605 18.183L22.5941 15.5836L25.0052 17.0288L25.7948 16.3429L16.9253 11.1383L15.8628 12.0634L19.9742 21.4063L20.7536 20.7291V20.7277ZM16.9341 12.2565L16.9764 12.219L21.7899 15.1009L19.2211 17.3343L16.9341 12.2565Z" fill="#303326"/>
<path d="M31.9554 12.9164L31.519 12.1571L27.3798 14.4683L22.9794 6.78963L22.1124 7.27378L26.9478 15.7133L31.9554 12.9164Z" fill="#303326"/>
<path d="M38.6764 10.6643L38.3991 9.83574L33.8834 11.317L31.0651 2.94236L30.1193 3.25216L33.2164 12.4553L38.6764 10.6643Z" fill="#303326"/>
<path d="M46.3272 9.81124L48.3982 1.97695C48.4157 1.89337 48.5923 1.22046 48.6084 1.15274L48.6784 1.15562C48.6755 1.22478 48.8083 1.90778 48.8186 1.99135L50.3802 9.94236L51.8952 9.99135L54.3895 0.368876L53.3941 0.337176L51.2092 9.06916L51.1246 9.06628L49.4111 0.208934L47.9385 0.161383L45.6412 8.88905L45.558 8.88617L43.9555 0.0331412L42.9455 0L44.7976 9.76225L46.3272 9.81124Z" fill="#303326"/>
<path d="M61.4302 11.6196L56.4956 10.1182L57.6851 6.30548L61.1456 7.35879L61.4024 6.53746L57.9419 5.48415L58.8687 2.51873L63.6691 3.97983L63.9289 3.14697L58.1769 1.39481L55.2827 10.6614L61.1689 12.4539L61.4302 11.6196Z" fill="#303326"/>
<path d="M68.5365 16.9568C70.0632 18.0389 71.9065 17.879 73.5368 16.4928L72.8815 15.755C71.5431 16.8357 70.1814 16.9971 69.0766 16.2133C67.5835 15.1556 67.5645 13.1124 69.0386 11.0865C70.5127 9.06052 72.4772 8.42507 73.9601 9.4755C75.0095 10.219 75.3393 11.4755 74.8533 12.9049L75.8107 13.2262C76.4602 11.3833 75.9713 9.77522 74.5453 8.76513C72.5049 7.31844 69.9683 8.02738 68.1848 10.4813C66.4013 12.9352 66.5428 15.5432 68.538 16.9568H68.5365Z" fill="#303326"/>
<path d="M72.8246 20.1311L75.4064 19.0058L78.0307 21.9669L76.558 24.3444L77.2513 25.1268L82.5551 16.3847L81.6225 15.3329L72.143 19.3617L72.8275 20.134L72.8246 20.1311ZM81.4196 16.3876L81.4561 16.4294L78.521 21.1744L76.2661 18.6311L81.4196 16.389V16.3876Z" fill="#303326"/>
<path d="M78.3839 27.0231L85.4596 23.3761C85.7573 23.2219 85.9572 23.1196 86.2623 22.9481L86.2886 22.9971C86.0871 23.2723 85.9324 23.4611 85.731 23.7378L80.5206 31.062L81.2664 32.4741L89.9724 27.9885L89.5184 27.1297L82.4427 30.7752C82.1435 30.9294 81.9451 31.0317 81.64 31.2046L81.6137 31.1556C81.8166 30.879 81.964 30.6787 82.1713 30.415L87.3817 23.0908L86.6345 21.6787L77.9299 26.1643L78.3839 27.0245V27.0231Z" fill="#303326"/>
<path d="M86.3703 42.6354C85.1487 42.8184 84.2321 42.0158 84.0263 40.6729C83.8191 39.317 84.4846 38.2795 85.9879 37.634L85.5953 36.7406C83.7344 37.4669 82.8485 38.915 83.1375 40.8055C83.4352 42.7507 84.8174 43.9035 86.6067 43.6369C89.8673 43.1513 88.1159 38.1023 90.5722 37.7363C91.5019 37.598 92.1952 38.2363 92.3703 39.3732C92.525 40.3876 92.1543 41.1153 91.1152 41.83L91.6508 42.647C92.9468 41.8372 93.4839 40.7205 93.2606 39.255C92.995 37.5159 91.8318 36.4971 90.3329 36.7205C87.0869 37.2046 88.8266 42.268 86.3703 42.6354Z" fill="#303326"/>
<path d="M83.841 45.7147L86.4739 46.7233L86.2054 50.6499L83.46 51.3012L83.3885 52.3386L93.4051 49.866L93.5 48.4697L83.911 44.6916L83.841 45.7147ZM87.3511 47.0605L92.6009 49.0764L92.5966 49.1311L87.119 50.4337L87.3496 47.0605H87.3511Z" fill="#303326"/>
<path d="M82.2486 56.2882L90.8831 61.8732L91.1619 60.8703L83.2659 55.8746L83.2805 55.8213L92.6535 55.5L92.9352 54.4841L82.6237 54.9395L82.2486 56.2882Z" fill="#303326"/>
<path d="M77.9533 65.8285L78.7356 66.2349L81.1394 61.7219L84.7167 63.5793L83.0324 66.7435L83.803 67.1426L85.4873 63.9784L88.2691 65.4236L85.9324 69.8127L86.7147 70.219L89.517 64.9582L80.8212 60.4452L77.9533 65.8285Z" fill="#303326"/>
<path d="M74.1513 70.5058L77.1739 73.5576L75.1671 75.4942C73.9134 76.7046 73.8346 78.2723 74.9934 79.4409C76.161 80.6196 77.7694 80.5792 79.0538 79.3386L81.7334 76.7522L74.865 69.817L74.1527 70.5043L74.1513 70.5058ZM80.4009 76.817L78.5546 78.5994C77.5913 79.5288 76.5682 79.5663 75.7159 78.7046C74.881 77.8631 74.9511 76.9222 75.9348 75.9726L77.7913 74.1801L80.4009 76.8156V76.817Z" fill="#303326"/>
<path d="M58.3608 80.2464C56.0256 80.9942 55.1003 83.4294 56.0431 86.3026C56.986 89.1744 59.1825 90.6124 61.5177 89.8645C63.8398 89.121 64.7783 86.6816 63.8355 83.8084C62.8926 80.9366 60.6829 79.5029 58.3608 80.2464ZM61.2331 88.9942C59.4846 89.5533 57.8223 88.353 57.0443 85.9813C56.265 83.6095 56.8984 81.6744 58.6469 81.1153C60.3822 80.5605 62.0578 81.7565 62.8371 84.1282C63.6151 86.5 62.9685 88.4395 61.2346 88.9942H61.2331Z" fill="#303326"/>
<path d="M40.1272 82.6081L45.2661 83.0836L44.8895 87.0533L41.2875 86.7205L41.2057 87.5749L44.8093 87.9092L44.5159 90.9971L39.5156 90.5346L39.4339 91.4035L45.4252 91.9582L46.3403 82.3055L40.2089 81.7392L40.1272 82.6081Z" fill="#303326"/>
<path d="M35.7209 80.2176C33.9315 79.6513 32.2268 80.3617 31.1074 82.1743L31.9597 82.6772C32.8968 81.2435 34.1417 80.6772 35.4378 81.0865C37.1877 81.6412 37.8401 83.5778 37.0695 85.9525C36.2989 88.3271 34.6263 89.5288 32.8895 88.9784C31.6605 88.5893 30.9556 87.4942 30.9731 85.987L29.9617 85.9726C29.9179 87.9222 30.8826 89.304 32.5523 89.8329C34.943 90.5893 37.1366 89.1455 38.0707 86.2709C39.0048 83.3948 38.0576 80.9582 35.7194 80.2176H35.7209Z" fill="#303326"/>
<path d="M28.146 77.0101L23.6318 84.6081L21.066 83.1225L20.6121 83.8876L26.6136 87.3646L27.0689 86.5994L24.49 85.1066L29.0057 77.5086L28.146 77.0101Z" fill="#303326"/>
<path d="M51.1538 82.0187C49.2929 82.1383 48.3734 83.1816 48.496 85.0403L48.9806 92L49.9584 91.938L49.5045 85.0303C49.4315 83.7075 49.9686 83.0274 51.1494 82.9524C51.253 82.9452 51.361 82.9438 51.4763 82.9467C52.5899 82.9726 52.8658 83.8429 53 84.6138L54.0086 84.5245C53.9984 84.3314 53.9502 83.8256 53.7064 83.3098C53.4554 82.7824 52.7913 81.915 51.1538 82.0202V82.0187Z" fill="#303326"/>
<path d="M68.0374 75.6988L70.304 79.3257L68.9145 80.1715L64.2791 77.987L63.2327 78.6239L67.9046 80.7853L67.9615 80.7507C66.4859 81.6484 66.1459 83.0735 67.0259 84.4813C67.8549 85.8084 69.2955 86.2752 70.8893 85.304L74.017 83.3991L68.8824 75.1816L68.0388 75.696L68.0374 75.6988ZM72.7107 83.1772L70.4397 84.5605C69.4049 85.1902 68.4096 84.8084 67.8812 83.9625C67.3529 83.1182 67.3193 82.1484 68.4752 81.4438L70.7579 80.0533L72.7093 83.1772H72.7107Z" fill="#303326"/>
</svg>

